<?xml version="1.0" encoding="utf-8"?>
<!-- Generator: Adobe Illustrator 23.0.1, SVG Export Plug-In . SVG Version: 6.00 Build 0)  -->
<svg version="1.1" xmlns="http://www.w3.org/2000/svg" xmlns:xlink="http://www.w3.org/1999/xlink" x="0px" y="0px"
	 viewBox="0 0 35.3 25" style="enable-background:new 0 0 35.3 25;" xml:space="preserve">
<style type="text/css">
	.st0{display:none;}
	.st1{display:inline;}
	.st2{fill:#FFFFFF;}
</style>
<g id="Layer_2" class="st0">
	<rect x="-1105.7" y="289" class="st1" width="1147" height="757"/>
</g>
<g id="Layer_1">
	<g>
		<path class="st2" d="M-412.4,846.9c-0.9,0-1.8,0.1-2.7,0.1h-29.5L-412.4,846.9z"/>
	</g>
	<path class="st2" d="M-200.2,558.7l-205.3,0.3l-32.2,0h-433.5c-32.7,0-59.5-16-59.5-35.5V374.5c0-19.5,26.8-35.5,59.5-35.5h463
		c32.7,0,59.5,16,59.5,35.5v142.1l0.5-0.2L-200.2,558.7z"/>
	<path class="st2" d="M-293.7-122h-594.8c-19.3,0-35.2-15.8-35.2-35.2v-149.7c0-19.3,15.8-35.2,35.2-35.2h513.7
		c19.3,0,35.2,15.8,35.2,35.2V-159L-293.7-122z"/>
	<path class="st2" d="M-253.7-435l-54-9.9v27.7c0,11-9.1,20.1-20.1,20.1h-543.8c-11,0-20.1-9-20.1-20.1v-179.8
		c0-11,9.1-20.1,20.1-20.1h543.8c11,0,20.1,9,20.1,20.1V-492L-253.7-435z"/>
	<path class="st2" d="M-21.7-95.6l-68,19.7V-41c0,10.4-8.5,19-19,19h-549.1c-10.4,0-19-8.5-19-19V-213c0-10.4,8.5-19,19-19h549.1
		c10.4,0,19,8.5,19,19v97.8L-21.7-95.6z"/>
	<rect x="-924.7" y="174" style="fill:none;" width="587" height="31"/>
	<text transform="matrix(1 0 0 1 -894.6636 199.0796)" style="font-family:'Verdana'; font-size:33px;">Sorry that name already exists!</text>
	<polygon class="st2" points="0,0 35.3,0 17.7,25 	"/>
</g>
</svg>
