<?xml version="1.0" encoding="utf-8"?>
<!-- Generator: Adobe Illustrator 23.0.1, SVG Export Plug-In . SVG Version: 6.00 Build 0)  -->
<svg version="1.1" id="Layer_1" xmlns="http://www.w3.org/2000/svg" xmlns:xlink="http://www.w3.org/1999/xlink" x="0px" y="0px"
	 viewBox="0 0 32 32" style="enable-background:new 0 0 32 32;" xml:space="preserve">
<style type="text/css">
	.st0{fill:#FFFFFF;}
</style>
<title></title>
<g id="Layer_17">
	<path class="st0" d="M24,31H8c-1.7,0-3-1.3-3-3V9c0-0.6,0.4-1,1-1s1,0.4,1,1v19c0,0.6,0.4,1,1,1h16c0.6,0,1-0.4,1-1V9
		c0-0.6,0.4-1,1-1s1,0.4,1,1v19C27,29.7,25.7,31,24,31z"/>
	<path class="st0" d="M28,7H4C3.4,7,3,6.6,3,6s0.4-1,1-1h24c0.6,0,1,0.4,1,1S28.6,7,28,7z"/>
	<path class="st0" d="M20,7c-0.6,0-1-0.4-1-1V3h-6v3c0,0.6-0.4,1-1,1s-1-0.4-1-1V2c0-0.6,0.4-1,1-1h8c0.6,0,1,0.4,1,1v4
		C21,6.6,20.6,7,20,7z"/>
	<path class="st0" d="M16,26c-0.6,0-1-0.4-1-1V11c0-0.6,0.4-1,1-1c0.6,0,1,0.4,1,1v14C17,25.6,16.6,26,16,26z"/>
	<path class="st0" d="M21,24c-0.6,0-1-0.4-1-1V13c0-0.6,0.4-1,1-1s1,0.4,1,1v10C22,23.6,21.6,24,21,24z"/>
	<path class="st0" d="M11,24c-0.6,0-1-0.4-1-1V13c0-0.6,0.4-1,1-1s1,0.4,1,1v10C12,23.6,11.6,24,11,24z"/>
</g>
</svg>
