<?xml version="1.0" encoding="utf-8"?>
<!-- Generator: Adobe Illustrator 23.0.1, SVG Export Plug-In . SVG Version: 6.00 Build 0)  -->
<svg version="1.1" xmlns="http://www.w3.org/2000/svg" xmlns:xlink="http://www.w3.org/1999/xlink" x="0px" y="0px"
	 viewBox="0 0 655 210" style="enable-background:new 0 0 655 210;" xml:space="preserve">
<style type="text/css">
	.st0{display:none;}
	.st1{display:inline;}
	.st2{fill:#FFFFFF;}
</style>
<g id="Layer_2" class="st0">
	<rect x="-182" y="375" class="st1" width="1147" height="757"/>
</g>
<g id="Layer_1">
	<g>
		<path class="st2" d="M511.2,932.9c-0.9,0-1.8,0.1-2.7,0.1H479L511.2,932.9z"/>
	</g>
	<path class="st2" d="M723.5,644.7L518.2,645l-32.2,0H52.5C19.8,645-7,629-7,609.5V460.5C-7,441,19.8,425,52.5,425h463
		c32.7,0,59.5,16,59.5,35.5v142.1l0.5-0.2L723.5,644.7z"/>
	<path class="st2" d="M630-36H35.2C15.8-36,0-51.8,0-71.2v-149.7C0-240.2,15.8-256,35.2-256h513.7c19.3,0,35.2,15.8,35.2,35.2V-73
		L630-36z"/>
	<path class="st2" d="M670-349l-54-9.9v27.7c0,11-9.1,20.1-20.1,20.1H52.1c-11,0-20.1-9-20.1-20.1v-179.8c0-11,9.1-20.1,20.1-20.1
		h543.8c11,0,20.1,9,20.1,20.1V-406L670-349z"/>
	<path class="st2" d="M655,136.4l-68,19.7V191c0,10.4-8.5,19-19,19H19c-10.4,0-19-8.5-19-19V19C0,8.5,8.5,0,19,0H568
		c10.4,0,19,8.5,19,19v97.8L655,136.4z"/>
	<rect x="-1" y="260" style="fill:none;" width="587" height="31"/>
	<text transform="matrix(1 0 0 1 28.9995 285.0796)" style="font-family:'Verdana'; font-size:33px;">Sorry that name already exists!</text>
</g>
</svg>
